<svg width="24" height="24" viewBox="0 0 24 24" fill="none" xmlns="http://www.w3.org/2000/svg">
<path d="M12.5233 2.60175L12.0312 3.02325C12.0312 3.02325 10.2762 4.45575 8.53925 6.53925C6.8015 8.622 5 11.37 5 14.25C5 16.3245 5.84975 18.0525 7.22675 19.2187C8.51825 20.3115 10.247 20.9032 12.125 20.9767C12.251 20.9827 12.374 21 12.5 21C12.626 21 12.749 20.9827 12.875 20.9767C14.753 20.9032 16.4818 20.3115 17.7733 19.2187C19.1503 18.0525 20 16.3237 20 14.25C20 11.6572 18.1895 8.95575 16.4608 6.7965C14.7327 4.638 13.016 3.0465 13.016 3.0465L12.5233 2.60175ZM12.4775 4.6875C12.8675 5.0565 13.8897 5.98275 15.29 7.73475C16.9355 9.79425 18.5 12.4192 18.5 14.25C18.5 15.9255 17.8497 17.1975 16.7892 18.0937C16.5312 18.3112 16.25 18.51 15.9455 18.6795C16.13 18.237 16.25 17.757 16.25 17.25C16.25 12.5625 13.742 9.70275 13.742 9.70275L12.383 8.18025L12.4295 10.2187C12.4295 10.2187 12.4325 11.1735 12.3125 12.0937C12.251 12.5535 12.1663 13.011 12.0545 13.266C12.0223 13.3387 12.008 13.3477 11.984 13.383C11.7813 13.2951 11.5982 13.1676 11.4455 13.008C11.1935 12.75 11.0233 12.492 11.0233 12.492L10.2965 11.367L9.734 12.5857C9.734 12.5857 8.75 14.5927 8.75 17.25C8.75 17.757 8.87 18.237 9.0545 18.6795C8.75529 18.5115 8.47276 18.3153 8.21075 18.0937C7.15025 17.1975 6.5 15.9262 6.5 14.25C6.5 12.0322 8.0735 9.46575 9.71075 7.5C11.0998 5.83575 12.0837 5.02125 12.4767 4.6875H12.4775ZM13.7428 12.5857C14.255 13.6995 14.75 15.255 14.75 17.25C14.75 17.8467 14.5129 18.419 14.091 18.841C13.669 19.2629 13.0967 19.5 12.5 19.5C11.9033 19.5 11.331 19.2629 10.909 18.841C10.4871 18.419 10.25 17.8467 10.25 17.25C10.25 16.0545 10.4818 15.0442 10.6955 14.3205C11.0322 14.622 11.4455 14.9295 12.0545 14.9295C12.4123 14.9295 12.752 14.766 12.9688 14.5545C13.1862 14.3437 13.3085 14.0947 13.4142 13.8517C13.5837 13.4557 13.6722 13.0162 13.7428 12.5857Z" fill="white"/>
</svg>
