<svg width="24" height="24" viewBox="0 0 24 24" fill="none" xmlns="http://www.w3.org/2000/svg">
<path d="M6.375 3.75L6.14025 4.0545L3.75 7.242V20.25H20.25V7.242L17.859 4.0545L17.625 3.75H6.375ZM7.125 5.25H11.25V6.75H6L7.125 5.25ZM12.75 5.25H16.875L18 6.75H12.75V5.25ZM5.25 8.25H18.75V18.75H5.25V8.25ZM9.60975 9.75C9.1965 9.7875 8.89125 10.1572 8.9295 10.5705C8.96775 10.983 9.33675 11.2882 9.75 11.25H14.25C14.52 11.253 14.7712 11.112 14.9093 10.878C14.9755 10.763 15.0103 10.6327 15.0103 10.5C15.0103 10.3673 14.9755 10.237 14.9093 10.122C14.7712 9.888 14.5192 9.747 14.25 9.75H9.60975Z" fill="#997BC6"/>
</svg>
