<svg width="24" height="24" viewBox="0 0 24 24" fill="none" xmlns="http://www.w3.org/2000/svg">
<path d="M11.051 2.5407C12.0909 2.14073 13.2421 2.14073 14.282 2.5407L21.725 5.4027C22.1493 5.56609 22.5142 5.85421 22.7715 6.22908C23.0289 6.60396 23.1666 7.04801 23.1665 7.5027V17.4417C23.1666 17.8964 23.0289 18.3404 22.7715 18.7153C22.5142 19.0902 22.1493 19.3783 21.725 19.5417L14.282 22.4052C13.2421 22.8052 12.0909 22.8052 11.051 22.4052L3.6095 19.5417C3.1849 19.3786 2.81971 19.0905 2.5621 18.7156C2.30449 18.3407 2.16656 17.8966 2.1665 17.4417V7.5027C2.16656 7.04783 2.30449 6.60366 2.5621 6.22876C2.81971 5.85386 3.1849 5.56585 3.6095 5.4027L11.051 2.5407ZM13.7435 3.9402C13.0503 3.67355 12.2827 3.67355 11.5895 3.9402L9.5135 4.7397L17.8985 7.9137L20.8205 6.6627L13.7435 3.9402ZM21.6665 7.9302L13.4165 11.4687V21.1107C13.5275 21.0822 13.6355 21.0477 13.7435 21.0057L21.1865 18.1437C21.3279 18.0891 21.4495 17.993 21.5352 17.8679C21.6209 17.7429 21.6667 17.5948 21.6665 17.4432V7.9302ZM11.9165 21.1092V11.4687L3.6665 7.9317V17.4417C3.66635 17.5933 3.71213 17.7414 3.79782 17.8664C3.8835 17.9915 4.00508 18.0876 4.1465 18.1422L11.5895 21.0042C11.6975 21.0462 11.8055 21.0807 11.9165 21.1092ZM4.5125 6.6627L12.6665 10.1577L15.9125 8.7657L7.412 5.5467L4.5125 6.6627Z" fill="#997BC6"/>
</svg>
