<svg width="24" height="24" viewBox="0 0 24 24" fill="none" xmlns="http://www.w3.org/2000/svg">
<path d="M2.78925 1.71075L1.71 2.79L6.3525 7.40625L16.0792 17.133L21.2115 22.2893L22.29 21.2108L17.532 16.4535C20.6055 14.889 22.896 12.6825 23.04 12.5385L23.532 12.0473L23.0632 11.5073C22.869 11.283 18.2962 6 12 6C10.506 6 9.114 6.3135 7.85175 6.77325L2.78925 1.71075ZM12 7.5C13.623 7.5 15.12 7.91625 16.4535 8.508C16.9597 9.33375 17.25 10.2743 17.25 11.25C17.25 12.612 16.725 13.8518 15.867 14.7893L13.7347 12.6563C14.0625 12.2603 14.2444 11.7639 14.25 11.25C14.25 10.011 13.239 9 12 9C11.486 9.00574 10.9895 9.1879 10.5938 9.516L9.0465 7.96875C9.9765 7.6905 10.9575 7.5 12 7.5ZM4.96875 8.15625C2.54025 9.64725 1.04625 11.379 0.9375 11.508L0.46875 12.0473L0.96075 12.5393C1.1745 12.753 6.0735 17.5373 11.2965 17.9528H11.3438C11.5612 17.9708 11.7832 18 12 18C12.2175 18 12.4395 17.97 12.6562 17.9528H12.7035C13.3049 17.9025 13.9008 17.8006 14.4847 17.6483L13.1947 16.3598C13.0072 16.4033 12.8055 16.4325 12.6097 16.4535L12.516 16.476C12.1635 16.506 11.8335 16.506 11.4847 16.476L11.4142 16.4535C10.1325 16.3126 8.94787 15.7037 8.08721 14.7436C7.22654 13.7834 6.7504 12.5394 6.75 11.25C6.75 10.8488 6.7995 10.4625 6.891 10.0778L4.96875 8.15625ZM5.46075 9.633C5.32428 10.1613 5.25349 10.7044 5.25 11.25C5.25 12.4598 5.5785 13.5908 6.141 14.5785C4.86838 13.8141 3.66793 12.9354 2.5545 11.9535C3.44236 11.0838 4.41609 10.3063 5.46075 9.633ZM18.5392 9.633C19.5789 10.3119 20.5449 11.0974 21.4215 11.9768C20.3157 12.9506 19.1232 13.8215 17.859 14.5785C18.4413 13.5657 18.7485 12.4182 18.75 11.25C18.7446 10.7045 18.6738 10.1617 18.5392 9.633ZM12 10.5C12.4125 10.5 12.75 10.8375 12.75 11.25C12.75 11.373 12.7087 11.475 12.6562 11.5785L11.6715 10.5938C11.7716 10.5358 11.8844 10.5036 12 10.5Z" fill="white"/>
</svg>
