<svg width="24" height="24" viewBox="0 0 24 24" fill="none" xmlns="http://www.w3.org/2000/svg">
<path d="M20.5636 11.5522C20.5352 11.432 20.4776 11.3207 20.3958 11.2281C20.314 11.1355 20.2106 11.0646 20.0948 11.0216L14.6939 8.99566L16.0683 2.12097C16.0994 1.96124 16.0777 1.79572 16.0065 1.64939C15.9353 1.50306 15.8185 1.38386 15.6736 1.30977C15.5287 1.23568 15.3636 1.21073 15.2033 1.23869C15.043 1.26664 14.8961 1.34597 14.7848 1.46472L4.28485 12.7147C4.19957 12.8046 4.13787 12.9142 4.10528 13.0337C4.07269 13.1532 4.07021 13.2789 4.09806 13.3997C4.12592 13.5204 4.18325 13.6323 4.26492 13.7254C4.34659 13.8186 4.45006 13.8901 4.5661 13.9335L9.96891 15.9594L8.59828 22.8266C8.56716 22.9863 8.58884 23.1518 8.66004 23.2982C8.73124 23.4445 8.8481 23.5637 8.993 23.6378C9.13789 23.7119 9.30294 23.7368 9.46326 23.7089C9.62357 23.6809 9.77045 23.6016 9.88172 23.4828L20.3817 12.2328C20.4655 12.143 20.5258 12.0339 20.5575 11.9152C20.5893 11.7965 20.5913 11.6719 20.5636 11.5522ZM10.5867 20.5363L11.5683 15.6257C11.6034 15.4515 11.5756 15.2705 11.4897 15.115C11.4039 14.9594 11.2656 14.8394 11.0995 14.7763L6.14578 12.9153L14.0789 4.41597L13.0983 9.3266C13.0632 9.50075 13.091 9.68173 13.1768 9.83728C13.2627 9.99283 13.401 10.1129 13.567 10.176L18.517 12.0322L10.5867 20.5363Z" fill="#F1FFC4"/>
</svg>
