<svg width="24" height="24" viewBox="0 0 24 24" fill="none" xmlns="http://www.w3.org/2000/svg">
<path d="M9.75 3V4.5H14.25V3H9.75ZM12 5.25C7.45275 5.25 3.75 8.9535 3.75 13.5C3.75 18.0473 7.4535 21.75 12 21.75C16.5473 21.75 20.25 18.0465 20.25 13.5C20.25 11.3115 19.3973 9.3075 18 7.82775L19.2892 6.53925L18.21 5.46L16.8525 6.8205C15.4423 5.79602 13.7431 5.24607 12 5.25ZM12 6.75C15.735 6.75 18.75 9.765 18.75 13.5C18.75 17.235 15.735 20.25 12 20.25C8.265 20.25 5.25 17.235 5.25 13.5C5.25 9.765 8.265 6.75 12 6.75ZM11.25 8.25V12.2108C10.8015 12.4718 10.5 12.9457 10.5 13.5C10.5 14.0535 10.8015 14.5282 11.25 14.7892V15.75H12.75V14.7892C13.1985 14.5282 13.5 14.0543 13.5 13.5C13.5 12.9465 13.1985 12.4718 12.75 12.2108V8.25H11.25Z" fill="white"/>
</svg>
