<svg width="24" height="24" viewBox="0 0 24 24" fill="none" xmlns="http://www.w3.org/2000/svg">
<path d="M15.75 3C12.8588 3 10.5 5.35875 10.5 8.25C10.5 8.78625 10.6613 9.27225 10.8105 9.762L3.70877 16.863C3.2554 17.3189 3.00092 17.9357 3.00092 18.5786C3.00092 19.2216 3.2554 19.8384 3.70877 20.2943C4.16478 20.7459 4.78068 20.9993 5.42252 20.9993C6.06437 20.9993 6.68026 20.7459 7.13627 20.2943L14.2388 13.1918C14.7248 13.3418 15.2138 13.5 15.75 13.5C18.6413 13.5 21 11.1412 21 8.25C21 7.47975 20.8298 6.75 20.5313 6.09375L20.0858 5.10375L19.3208 5.871L16.9403 8.25H15.75V7.0605L18.8963 3.91425L17.9063 3.46875C17.2294 3.15975 16.4941 2.99988 15.75 3ZM15.75 4.5C15.879 4.5 15.987 4.5645 16.113 4.5765L14.25 6.4395V9.75H17.5605L19.4205 7.887C19.4355 8.013 19.5 8.121 19.5 8.25C19.5 10.3298 17.8298 12 15.75 12C15.2425 12.0003 14.7401 11.8977 14.2733 11.6985L13.8083 11.499L6.07502 19.2308C5.98953 19.3171 5.88778 19.3856 5.77566 19.4323C5.66353 19.4791 5.54325 19.5031 5.42177 19.5031C5.30029 19.5031 5.18001 19.4791 5.06789 19.4323C4.95576 19.3856 4.85402 19.3171 4.76852 19.2308C4.68213 19.145 4.61355 19.043 4.56676 18.9306C4.51997 18.8183 4.49588 18.6977 4.49588 18.576C4.49588 18.4543 4.51997 18.3337 4.56676 18.2214C4.61355 18.109 4.68213 18.007 4.76852 17.9213L12.501 10.1925L12.3015 9.72375C12.1023 9.25797 11.9997 8.75659 12 8.25C12 6.17025 13.6703 4.5 15.75 4.5Z" fill="#F0A6CA"/>
</svg>
